<svg xmlns="http://www.w3.org/2000/svg" width="430" height="430" fill="none" viewBox="0 0 430 430">
    <path fill="#000"
          d="M298.007 360.518c-15.208 4.542-31.323 6.981-48.007 6.981-92.508 0-167.5-74.992-167.5-167.5 0-62.305 34.018-116.664 84.493-145.518C97.881 75.12 47.5 139.176 47.5 214.999c0 92.508 74.992 167.5 167.5 167.5 30.203 0 58.538-7.993 83.007-21.981"
          opacity=".5" style="mix-blend-mode:multiply"/>
    <path fill="#01"
          d="m142.609 233.296 25.897 81.974c.679 2.151 3.4 2.811 4.989 1.211l39.147-39.417 7.858-27.511h-19L276 159l-115.5 44-24 12z"/>
    <path fill="#0000"
          d="m175.123 249.553-4.915 67.582a2.99 2.99 0 0 0 3.274-.641l.013-.013 39.147-39.417 7.858-27.511z"
          style="mix-blend-mode:multiply"/>
    <path fill="#010"
          d="m168.506 315.27-25.897-81.974L136.5 215l24-12L276 159l-74.5 90.553h-26.377l-4.915 67.582a2.96 2.96 0 0 1-1.702-1.865"
          opacity=".7" style="mix-blend-mode:multiply"/>
    <path fill="#010"
          d="m258.319 302.139 45.286-166.375c1.088-3.997-2.877-7.507-6.712-5.943l-200.23 81.647c-4.426 1.805-4.04 8.196.572 9.453l45.374 12.375 108.38-59.609-75.866 75.866 75.415 55.305c2.829 2.074 6.86.666 7.781-2.719"/>
    <path fill="#000"
          d="m142.609 233.296 108.38-59.609 51.18-36.888c.929-.67 1.697-1.648 1.602-2.789-.268-3.184-3.62-5.518-6.878-4.189l-200.23 81.647c-4.426 1.805-4.04 8.196.572 9.453z"
          opacity=".4" style="mix-blend-mode:multiply"/>
</svg>
