<svg xmlns="http://www.w3.org/2000/svg" width="430" height="430" fill="none" viewBox="0 0 430 430">
    <path fill="#000"
          d="M127.911 144.98c18.395 24.938 47.252 41.688 80.094 43.771a47 47 0 0 1-.259-4.927c0-25.584 20.739-46.324 46.323-46.324 16.6 0 31.161 8.732 39.34 21.852a41.46 41.46 0 0 0 20.881-3.598c2.318-1.063 5.108.73 4.511 3.209-2.597 10.8-8.554 20.166-16.622 27.051q.272 4.017.273 8.104c0 65.38-53.002 118.382-118.383 118.382-17.917 0-34.905-3.98-50.127-11.105-2.913-1.364-.443-7.424 2.774-7.424a57.4 57.4 0 0 0 35.363-12.117c-16.078.37-31.11-7.256-40.415-19.839-1.521-2.056.377-4.767 2.93-4.612 4.085.249 8.27-.045 12.468-.937a46.14 46.14 0 0 0 18.5-8.494c-19.459.295-37.252-11.1-45.218-28.679-1.116-2.462 1.63-4.719 4.138-3.713 8.438 3.387 17.917 4.462 27.506 2.598a49 49 0 0 0 8.819-2.585c-24.445-2.037-43.65-22.523-43.65-47.495a47.45 47.45 0 0 1 5.886-22.961c1.023-1.858 3.608-1.864 4.868-.157"/>
    <path fill="#66a1ee"
          d="M160.068 174.02a108.65 108.65 0 0 1-32.157-29.04c-1.26-1.708-3.845-1.701-4.868.157a47.45 47.45 0 0 0-5.886 22.961c0 20.795 13.317 38.479 31.888 44.99a49 49 0 0 1-.881-1.534 46.2 46.2 0 0 0 18.898-.088 46.14 46.14 0 0 0 18.5-8.494c-21.938.332-41.758-14.192-47.767-35.686a48.8 48.8 0 0 0 22.273 6.734m-7.593 44.061-.487.098c-9.589 1.863-19.068.788-27.506-2.598-2.508-1.007-5.254 1.251-4.138 3.713 7.966 17.578 25.759 28.973 45.218 28.678q-.266.204-.536.404a57.37 57.37 0 0 0 27.053-11.522c-15.619.36-30.251-6.827-39.604-18.773m-.88 37.183a47 47 0 0 1-4.533 1.202 46.3 46.3 0 0 1-12.468.937c-2.553-.155-4.451 2.556-2.93 4.613 9.305 12.582 24.337 20.208 40.415 19.838a57.4 57.4 0 0 1-35.363 12.117c-3.217 0-5.687 6.06-2.774 7.424 15.222 7.125 32.21 11.105 50.127 11.105 56.981 0 104.56-40.257 115.844-93.882-21.517 29.622-56.431 48.882-95.844 48.882-18.844 0-36.66-4.403-52.474-12.236"
          opacity=".5" style="mix-blend-mode:multiply"/>
</svg>
